HIERARCHY
ROOT hip
{
  OFFSET 0.0 0.0 0.0
  CHANNELS 6 Xposition Yposition Zposition Zrotation Yrotation Xrotation
  JOINT torso
  {
    OFFSET 0.0 0.0 0.0
    CHANNELS 3 Zrotation Xrotation Yrotation
    JOINT neck
    {
      OFFSET -31.42098999999993 328.8025209999999 74.3554680000002
      CHANNELS 3 Zrotation Xrotation Yrotation
      JOINT head
      {
        OFFSET 3.3519900000001144 303.81732099999994 206.53942900000015
        CHANNELS 3 Zrotation Xrotation Yrotation
        End Site
        {
          OFFSET 0.0 0.0 0.0
        }
      }
    }
    JOINT left_collar
    {
      OFFSET -31.42098999999993 328.8025209999999 74.3554680000002
      CHANNELS 3 Zrotation Xrotation Yrotation
      JOINT left_upper_arm
      {
        OFFSET -124.490479 -8.162841999999841 8.226441000000023
        CHANNELS 3 Zrotation Xrotation Yrotation
        JOINT left_forearm
        {
          OFFSET -253.595764 -1.5758060000000569 105.0729980000001
          CHANNELS 3 Zrotation Xrotation Yrotation
          JOINT left_hand
          {
            OFFSET -269.48803699999996 0.1478270000000066 -55.346191999999974
            CHANNELS 3 Zrotation Xrotation Yrotation
            End Site
            {
              OFFSET 0.0 0.0 0.0
            }
          }
        }
      }
    }
    JOINT right_collar
    {
      OFFSET -31.42098999999993 328.8025209999999 74.3554680000002
      CHANNELS 3 Zrotation Xrotation Yrotation
      JOINT right_upper_arm
      {
        OFFSET 162.02484099999998 0.46441600000002836 2.2303470000001653
        CHANNELS 3 Zrotation Xrotation Yrotation
        JOINT right_forearm
        {
          OFFSET 240.01246700000004 -25.835875999999985 121.34179699999959
          CHANNELS 3 Zrotation Xrotation Yrotation
          JOINT right_hand
          {
            OFFSET 252.48539699999992 18.910399999999868 -67.53466800000001
            CHANNELS 3 Zrotation Xrotation Yrotation
            End Site
            {
              OFFSET 0.0 0.0 0.0
            }
          }
        }
      }
    }
  }
}
MOTION
Frames: 13
Frame Time: 0.01
-31.90600995299609 210.96765495252626 611.5453286618167 3.8801190478234173 -4.1295491296224585 -6.984340453143314 0.1290710196672432 -2.3521878683032877 -0.25548997227020975 -6.036598029222092 2.8924165644172484 3.9923605898856644 0.0 0.0 0.0 5.07438660844163 -0.7240441687450963 9.6378393880574 34.97502130870186 7.321026296280552 21.710262696417175 32.62379811071515 10.912720769332108 -59.46921897564468 0.0 0.0 0.0 1.5656776070040201 -0.15936716950269353 8.312405465728917 -32.77277959435257 6.614258599308102 -24.283774550956704 -43.77113703802935 2.702260913496947 44.690941734345195 0.0 0.0 0.0
-32.52235027402545 210.6996689927688 610.1721430171565 3.7518566822747053 -4.315557905119122 -5.7632072172075555 0.11949133563187837 -2.3285712538616394 -0.2508751675815929 -5.921063207221734 3.0940945629289467 3.9070875162197454 0.0 0.0 0.0 5.057016741492473 -0.720845962373738 9.611655824351667 34.98261647850506 7.319542524605255 21.719875921222638 32.5221638054886 10.83579967877214 -59.340382268496924 0.0 0.0 0.0 1.5638295148266104 -0.1590351641992562 8.302063472365724 -32.64085690495339 6.559970381329634 -24.319767696652004 -43.01673956127711 2.6166677292731655 44.76288623259839 0.0 0.0 0.0
-33.12224544680508 210.44586274171556 608.8491831145153 3.6140681634900638 -4.496542407057226 -4.535332673828914 0.11038277009190758 -2.3048991543569284 -0.24637424942822828 -5.804525377058889 3.2924813684016514 3.821490261178073 0.0 0.0 0.0 5.039675454563549 -0.7180880749036306 9.589410121958144 34.97400656048429 7.322278177866328 21.705816459230938 32.41918986424485 10.761966221783492 -59.22175033560884 0.0 0.0 0.0 1.5633978650568157 -0.15883873689187575 8.292497899799578 -32.502430203222104 6.504502475912369 -24.35428177067885 -42.24761986428575 2.5256878805504583 44.826370366980434 0.0 0.0 0.0
-33.69163001214876 210.20730605722352 607.5724767226334 3.466765196436055 -4.670579718172264 -3.3034782303174928 0.10219956541576422 -2.2818329932911867 -0.24216153851215144 -5.68789654618444 3.486698388485438 3.736208792543258 0.0 0.0 0.0 5.022970154002008 -0.7159806801135806 9.572938609157541 34.94903603580845 7.3296952057398075 21.666557574517128 32.315268235199966 10.690566326259386 -59.11093182371728 0.0 0.0 0.0 1.5647429276155311 -0.1588282835893233 8.284890787432174 -32.35894611514941 6.4476886241899996 -24.388771783848615 -41.46599064265561 2.4294665570630354 44.88023210254768 0.0 0.0 0.0
-34.21588199435432 209.9845613525365 606.337122727753 3.3099892797053614 -4.835766502179298 -2.070553479397556 0.09538021510535752 -2.2600434450272098 -0.23840788776705782 -5.572037801497215 3.6758949424853835 3.6518427689129633 0.0 0.0 0.0 5.0075228772753295 -0.7147204896905581 9.563964061133161 34.907902508742545 7.342111738534786 21.601178715458325 32.210556650634324 10.620876707990904 -59.0055426158831 0.0 0.0 0.0 1.5681968228894443 -0.15905073594466698 8.280355991822786 -32.211857037108196 6.389478138671338 -24.424428899828737 -40.67441514608017 2.3282344319416626 44.92329394573265 0.0 0.0 0.0
-34.6799324645374 209.77774425909746 605.1373471976011 3.1438176124779877 -4.990253022588849 -0.8395838085225611 0.09033285117236231 -2.2401823683038 -0.2352745342240267 -5.457735864561888 3.8592425329685063 3.568936696096361 0.0 0.0 0.0 4.993941456919706 -0.7144821341372795 9.564016191551719 34.85114399246736 7.359678045122821 21.509430692252053 32.10499444802709 10.552126063063213 -58.903251095220874 0.0 0.0 0.0 1.5740460026938559 -0.15954744112568842 8.279886776068949 -32.06256954319486 6.32995118666305 -24.462101627206447 -39.87578168588081 2.222309669459418 44.95438614741774 0.0 0.0 0.0
-35.0683783853857 209.58660177139825 603.966588457879 2.9683702173692197 -5.132277470853317 0.38632320777797846 0.08742169788924546 -2.222854894693049 -0.23290728853816275 -5.345683821985676 4.035928976557964 3.4879680204692023 0.0 0.0 0.0 4.982789305234799 -0.7154103919867102 9.57435820712572 34.7796177235076 7.382360176969134 21.39177980566534 31.998332294077276 10.483517179008295 -58.801812863087015 0.0 0.0 0.0 1.5825140720502613 -0.16035213274834526 8.284306907629814 -31.91239575956945 6.2693298336086345 -24.50222713186983 -39.07327069343725 2.1120973967024357 44.9723717705919 0.0 0.0 0.0
-35.36559961204537 209.41060456101863 602.8176098320397 2.7838177656019676 -5.260199919448336 1.604011860853258 0.08695499491547846 -2.2085928811663593 -0.23143125309346585 -5.236466689369899 4.20515329576838 3.409338506765759 0.0 0.0 0.0 4.974555477104752 -0.717613530283852 9.595922731298918 34.694472145246564 7.40993224420376 21.249428678662394 31.89017366811484 10.414249299484485 -58.69909466151216 0.0 0.0 0.0 1.5937459484050183 -0.16148905646082493 8.294227434267432 -31.762510202218696 6.207984579109189 -24.544775783636315 -38.270314687677086 1.9980862553837877 44.97617243670417 0.0 0.0 0.0
-35.55588168359697 209.24904967799145 601.6826377897486 2.5903895016545513 -5.372535247687485 2.8103123003650805 0.08917468293723839 -2.1978308586930715 -0.2309462186081393 -5.130552155552996 4.366122299236602 3.333369040215824 0.0 0.0 0.0 4.96962679208987 -0.7211579335384345 9.629259878156585 34.597113609616166 7.441977705929291 21.08431236501599 31.78002554804934 10.343540144567529 -58.593088010923985 0.0 0.0 0.0 1.6077943373892998 -0.1629713043513052 8.310010906886793 -31.61391429578334 6.1464363285166845 -24.589211504836992 -37.47055171061177 1.8808418121020976 44.96479350434401 0.0 0.0 0.0
-35.62354646924784 209.10116950280874 600.5535224871112 2.3883806386313755 -5.467984381558508 4.002074155427164 0.09424802442078291 -2.1908855065950648 -0.23152284731220832 -5.028286569273712 4.5180497240919175 3.2602978106172618 0.0 0.0 0.0 4.968263804675429 -0.726064132321636 9.67449968859208 34.48916914916804 7.477899499933178 20.899069177514967 31.66735552531879 10.270647065591 -58.48191371923063 0.0 0.0 0.0 1.6246094214628508 -0.16479940875740348 8.331744438940303 -31.467410328708 6.085353897436555 -24.634469824687198 -36.677772992470445 1.7609968078916889 44.93734748829672 0.0 0.0 0.0
-35.55309274972948 208.966242569718 599.4219170710718 2.178158614400588 -5.545463155528485 5.176199563608148 0.10226123747239002 -2.1879395541947293 -0.2331997173157323 -4.929896000673612 4.660158678926219 3.190281696057731 0.0 0.0 0.0 4.970582302135091 -0.7323043033363128 9.731330559955538 34.372446434618176 7.516938326831148 20.696986582648112 31.551652504472735 10.194886882330698 -58.36381890711111 0.0 0.0 0.0 1.6440325086012768 -0.16696024880736743 8.359222685914974 -31.32358599918491 6.02554724222623 -24.678954805868276 -35.895865799767655 1.6392384429810551 44.893074661890495 0.0 0.0 0.0
-35.32934843182837 208.8437017792613 598.2794716371046 1.96016764563061 -5.604128073393368 6.32967537863793 0.11321516921215274 -2.189030847835739 -0.23598128078920771 -4.835492038304239 4.791687921254151 3.123400566883001 0.0 0.0 0.0 4.976541786396093 -0.7398012978993584 9.798994704198938 34.248891810225636 7.558197969590208 20.481923441110833 31.432488156679238 10.115653995186202 -58.23716850809468 0.0 0.0 0.0 1.6657941881230145 -0.1694263311615006 8.391941586241945 -31.182810042752195 5.967956663154996 -24.72055523715594 -35.12875258262273 1.5162930911788624 44.83135995412895 0.0 0.0 0.0
-34.93763540150134 208.73323558803926 597.1180373330527 1.7349310872912427 -5.643398242931028 7.459604251283658 0.12702301752099546 -2.194047117370891 -0.23983677458155978 -4.745081854937495 4.911902248299188 3.05966416557653 0.0 0.0 0.0 4.985942064753925 -0.748429255972721 9.876301038754233 34.12054712714984 7.600676190739556 20.25821081939153 31.309576359889178 10.032436380804175 -58.10043333573768 0.0 0.0 0.0 1.6895173154820677 -0.17215551739094334 8.429103474779444 -31.045238775093868 5.91363826037734 -24.75667971227402 -34.38032766718195 1.3929090039557488 44.75174543438098 0.0 0.0 0.0
